# AST/ASF file generated using VICON BodyLanguage
# -----------------------------------------------
:version 1.10
:name VICON
:units
  mass 1.0
  length 0.45
  angle deg
:documentation
   .ast/.asf automatically generated from VICON data using
   VICON BodyBuilder and BodyLanguage model FoxedUp or BRILLIANT.MOD
:root
   order TX TY TZ RX RY RZ
   axis XYZ
   position 0 0 0  
   orientation 0 0 0 
:bonedata
  begin
     id 1 
     name lhipjoint
     direction 0.710188 -0.616876 0.339259 
     length 2.5669 
     axis 0 0 0  XYZ
  end
  begin
     id 2 
     name lfemur
     direction 0.34202 -0.939693 0  
     length 7.12796  
     axis 0 0 20  XYZ
    dof rx ry rz
    limits (-160.0 20.0)
           (-70.0 70.0)
           (-60.0 70.0)
  end
  begin
     id 3 
     name ltibia
     direction 0.34202 -0.939693 0   
     length 7.58108   
     axis 0 0 20   XYZ
    dof rx
    limits (-10.0 170.0)
  end
  begin
     id 4 
     name lfoot
     direction 0.0669471 -0.183936 0.980656   
     length 2.17365   
     axis -90 7.62852e-016 20   XYZ
    dof rx rz
    limits (-45.0 90.0)
           (-70.0 20.0)
  end
  begin
     id 5 
     name ltoes
     direction 1.53508e-011 -4.21705e-011 1   
     length 1.09427   
     axis -90 7.62852e-016 20   XYZ
    dof rx
    limits (-90.0 20.0)
  end
  begin
     id 6 
     name rhipjoint
     direction -0.700191 -0.625589 0.34405   
     length 2.53115  
     axis 0 0 0  XYZ 
  end
  begin
     id 7 
     name rfemur
     direction -0.34202 -0.939693 0   
     length 7.33006   
     axis 0 0 -20   XYZ
    dof rx ry rz
    limits (-160.0 20.0)
           (-70.0 70.0)
           (-70.0 60.0)
  end
  begin
     id 8 
     name rtibia
     direction -0.34202 -0.939693 0   
     length 7.64926   
     axis 0 0 -20   XYZ
    dof rx
    limits (-10.0 170.0)
 end
 begin
     id 9 
     name rfoot
     direction -0.0688927 -0.189281 0.979503   
     length 2.20493  
     axis -90 -7.62852e-016 -20   XYZ
    dof rx rz
    limits (-45.0 90.0)
           (-20.0 70.0)
  end
  begin
     id 10 
     name rtoes
     direction -1.53567e-011 -4.21933e-011 1   
     length 1.10919   
     axis -90 -7.62852e-016 -20   XYZ
    dof rx
    limits (-90.0 20.0)
  end
  begin
     id 11 
     name lowerback
     direction -0.0167868 0.989873 -0.140959   
     length 2.14596   
     axis 0 0 0   XYZ
    dof rx ry rz
    limits (-20.0 45.0)
           (-30.0 30.0)
           (-30.0 30.0)
  end
  begin
     id 12 
     name upperback
     direction 0.0129109 0.998033 0.0613525   
     length 2.10457   
     axis 0 0 0   XYZ
    dof rx ry rz
    limits (-20.0 45.0)
           (-30.0 30.0)
           (-30.0 30.0)
  end
  begin
     id 13 
     name thorax
     direction 0.0177047 0.991119 0.131797   
     length 2.17652   
     axis 0 0 0   XYZ
    dof rx ry rz
    limits (-20.0 45.0)
           (-30.0 30.0)
           (-30.0 30.0)
  end
  begin
     id 14 
     name lowerneck
     direction -0.0336893 0.997548 0.0613464   
     length 1.8912   
     axis 0 0 0   XYZ
    dof rx ry rz
    limits (-20.0 45.0)
           (-30.0 30.0)
           (-30.0 30.0)
  end
  begin
     id 15 
     name upperneck
     direction 0.0435909 0.997179 -0.0611028   
     length 1.8829   
     axis 0 0 0   XYZ
    dof rx ry rz
    limits (-20.0 45.0)
           (-30.0 30.0)
           (-30.0 30.0)
  end
  begin
     id 16
     name head
     direction 0.0175076 0.999444 -0.0283782  
     length 1.93197  
     axis 0 0 0   XYZ
    dof rx ry rz
    limits (-20.0 45.0)
           (-30.0 30.0)
           (-30.0 30.0)
  end
  begin
     id 17 
     name lclavicle
     direction 0.919164 0.389875 0.0559876  
     length 3.60004  
     axis 0 0 0   XYZ
    dof ry rz
    limits (-20.0 10.0)
           (0.0 20.0)
  end
  begin
     id 18 
     name lhumerus
     direction 1 -4.48958e-011 6.89191e-027   
     length 5.43301   
     axis 180 -30 -90   XYZ
    dof rx ry rz
    limits (-60.0 90.0)
           (-90.0 90.0)
           (-90.0 90.0)
  end
  begin
     id 19
     name lradius
     direction 1 -4.4897e-011 3.24727e-027   
     length 3.15936   
     axis 180 -30 -90   XYZ
    dof rx
    limits (-10.0 170.0)
  end
  begin
     id 20
     name lwrist
     direction 1 -4.4897e-011 9.00228e-027   
     length 1.57968   
     axis -6.29373e-015 90 90   XYZ
    dof ry
    limits (-180.0 0.0)
 end
  begin
     id 21 
     name lhand
     direction 1 -4.48968e-011 1.80042e-026   
     length 0.712827   
     axis -1.14882e-014 90 90   XYZ
    dof rx rz
    limits (-90.0 90.0)
           (-45.0 45.0)
  end
  begin
     id 22 
     name lfingers
     direction 1 -4.49019e-011 3.60267e-026   
     length 0.574699   
     axis -2.29769e-014 90 90   XYZ
    dof rx
    limits (0.0 90.0)
  end
  begin
     id 23
     name lthumb
     direction 0.707107 -6.3498e-011 0.707107   
     length 0.825157   
     axis -90 45 5.37419e-014   XYZ
    dof rx rz
    limits (-45.0 45.0)
           (-45.0 45.0)
  end
  begin
     id 24 
     name rclavicle
     direction -0.890334 0.455305 -0.00132111   
     length 3.51494  
     axis 0 0 0   XYZ 
    dof ry rz
    limits (-10.0 20.0)
           (-20.0 0.0)
  end
  begin
     id 25 
     name rhumerus
     direction -1 -4.48967e-011 5.07175e-028  
     length 5.34194   
     axis 180 30 90   XYZ
    dof rx ry rz
    limits (-90.0 60.0)
           (-90.0 90.0)
           (-90.0 90.0)
  end
  begin
     id 26 
     name rradius
     direction -1 -4.48955e-011 3.30467e-027   
     length 3.19351   
     axis 180 30 90   XYZ
    dof rx
    limits (-10.0 170.0)
  end
  begin
     id 27 
     name rwrist
     direction -1 -4.48968e-011 9.00208e-027   
     length 1.59676   
     axis -6.29373e-015 -90 -90   XYZ
    dof ry
    limits (-180.0 0.0)
  end
  begin
     id 28
     name rhand
     direction -1 -4.49e-011 1.80099e-026   
     length 0.743862   
     axis -1.14882e-014 -90 -90   XYZ
    dof rx rz
    limits (-90.0 90.0)
           (-45.0 45.0)
  end
  begin
     id 29
     name rfingers
     direction -1 -4.49009e-011 3.6023e-026   
     length 0.599721   
     axis -2.29769e-014 -90 -90   XYZ
    dof rx
    limits (0.0 90.0)
  end
  begin
     id 30
     name rthumb
     direction -0.707107 -6.35025e-011 0.707107   
     length 0.861083   
     axis -90 -45 -5.37419e-014   XYZ
    dof rx rz
    limits (-45.0 45.0)
           (-45.0 45.0)
  end
:hierarchy
  begin
    root lhipjoint rhipjoint lowerback
    lhipjoint lfemur
    lfemur ltibia
    ltibia lfoot
    lfoot ltoes
    rhipjoint rfemur
    rfemur rtibia
    rtibia rfoot
    rfoot rtoes
    lowerback upperback
    upperback thorax
    thorax lowerneck lclavicle rclavicle
    lowerneck upperneck
    upperneck head
    lclavicle lhumerus
    lhumerus lradius
    lradius lwrist
    lwrist lhand lthumb
    lhand lfingers
    rclavicle rhumerus
    rhumerus rradius
    rradius rwrist
    rwrist rhand rthumb
    rhand rfingers
  end

#!OML:ASF H:\Martial Arts Walks\Project 1\Capture day 1\Session 1\male.ASF
:FULLY-SPECIFIED
:DEGREES
1
root -6.66795 17.0039 -24.0325 4.46107 0.126057 -0.903768
lowerback 5.88573 1.88927 -3.51111
upperback -3.17752 2.27081 0.751816
thorax -6.80173 1.2961 2.48998
lowerneck -6.29012 -3.15928 -4.76426
upperneck 11.4331 -4.42894 5.65169
head 4.68691 -2.05289 2.25747
rclavicle -2.07272e-014 -1.94809e-014
rhumerus -39.5956 6.89729 -83.0119
rradius 34.7971
rwrist 4.02016
rhand -11.9722 -35.3918
rfingers 7.12502
rthumb 14.0838 -64.8946
lclavicle -2.07272e-014 -1.94809e-014
lhumerus -30.3015 -8.88667 90.2163
lradius 24.8786
lwrist -22.5877
lhand -23.5701 26.5457
lfingers 7.12502
lthumb 2.89253 56.5058
rfemur -17.9603 6.05796 15.8375
rtibia 40.0133
rfoot -17.4467 -12.8933
rtoes -11.6291
lfemur -15.3821 -5.48422 -13.8847
ltibia 33.8366
lfoot -17.751 10.3856
ltoes -6.22161
2
root -6.66871 17.0021 -24.0337 4.4578 0.124107 -0.897379
lowerback 5.91538 1.88427 -3.50623
upperback -3.16282 2.26398 0.75801
thorax -6.80273 1.29243 2.49397
lowerneck -6.33366 -3.1656 -4.7285
upperneck 11.4402 -4.43472 5.60811
head 4.69505 -2.05596 2.2371
rclavicle -3.37227e-014 -1.65985e-014
rhumerus -39.497 6.90001 -82.9859
rradius 34.7481
rwrist 4.02121
rhand -11.9713 -35.4305
rfingers 7.12502
rthumb 14.0846 -64.9332
lclavicle -3.37227e-014 -1.65985e-014
lhumerus -30.2518 -8.90648 90.2166
lradius 24.8792
lwrist -22.5634
lhand -23.5385 26.6142
lfingers 7.12502
lthumb 2.92303 56.5739
rfemur -17.9829 6.04121 15.8335
rtibia 40.0504
rfoot -17.4353 -12.9022
rtoes -11.7663
lfemur -15.4036 -5.47455 -13.8884
ltibia 33.8788
lfoot -17.7468 10.3927
ltoes -6.31501
3
root -6.66954 17.0014 -24.0334 4.45592 0.10953 -0.905049
lowerback 5.93841 1.89184 -3.4791
upperback -3.14102 2.27617 0.762984
thorax -6.79267 1.29682 2.48215
lowerneck -6.42836 -3.193 -4.69293
upperneck 11.4725 -4.46869 5.56834
head 4.72115 -2.07165 2.21531
rclavicle 1.79038e-014 -2.03754e-015
rhumerus -39.4677 6.87898 -82.9509
rradius 34.7793
rwrist 4.0415
rhand -11.8411 -35.5077
rfingers 7.12502
rthumb 14.2101 -65.0016
lclavicle 1.79038e-014 -2.03754e-015
lhumerus -30.1841 -8.95485 90.2245
lradius 24.8677
lwrist -22.5234
lhand -23.5318 26.5896
lfingers 7.12502
lthumb 2.92952 56.5493
rfemur -18.0031 6.01559 15.8436
rtibia 40.0894
rfoot -17.4684 -12.8706
rtoes -11.6697
lfemur -15.4091 -5.45485 -13.8784
ltibia 33.8988
lfoot -17.7648 10.3794
ltoes -6.33
4
root -6.67067 17.0003 -24.0341 4.44695 0.0999601 -0.879993
lowerback 5.97272 1.89815 -3.47379
upperback -3.12869 2.28274 0.743685
thorax -6.7987 1.29917 2.45731
lowerneck -6.46348 -3.20925 -4.66343
upperneck 11.4823 -4.49513 5.58431
head 4.7312 -2.08178 2.21318
rclavicle -6.93727e-015 -1.07841e-014
rhumerus -39.4239 6.82547 -82.9355
rradius 34.7721
rwrist 4.04431
rhand -11.8786 -35.4582
rfingers 7.12502
rthumb 14.174 -64.9546
lclavicle -6.93727e-015 -1.07841e-014
lhumerus -30.1443 -9.00127 90.2049
lradius 24.865
lwrist -22.5421
lhand -23.5725 26.6318
lfingers 7.12502
lthumb 2.89022 56.592
rfemur -18.0206 6.00091 15.8204
rtibia 40.1341
rfoot -17.4687 -12.8707
rtoes -11.7624
lfemur -15.408 -5.45277 -13.9032
ltibia 33.9147
lfoot -17.7672 10.3993
ltoes -6.31098
5
root -6.67227 16.9985 -24.0352 4.4302 0.0739079 -0.853832
lowerback 6.03065 1.89371 -3.50704
upperback -3.12275 2.27289 0.760648
thorax -6.82738 1.29655 2.49341
lowerneck -6.46691 -3.20167 -4.66739
upperneck 11.4581 -4.4794 5.55316
head 4.72297 -2.07618 2.20518
rclavicle 4.05101e-015 -1.00386e-014
rhumerus -39.321 6.84701 -82.9098
rradius 34.701
rwrist 4.04124
rhand -11.9803 -35.4688
rfingers 7.12502
rthumb 14.076 -64.9721
lclavicle 4.05101e-015 -1.00386e-014
lhumerus -30.1379 -8.96601 90.2129
lradius 24.8756
lwrist -22.534
lhand -23.6003 26.6408
lfingers 7.12502
lthumb 2.86339 56.6013
rfemur -18.0332 5.99884 15.7981
rtibia 40.1775
rfoot -17.4886 -12.8423
rtoes -11.7271
lfemur -15.3909 -5.42931 -13.9289
ltibia 33.925
lfoot -17.7699 10.4035
ltoes -6.33718
6
root -6.67385 16.9975 -24.0356 4.41791 0.0552298 -0.83082
lowerback 6.03752 1.8975 -3.51703
upperback -3.11344 2.277 0.762107
thorax -6.82226 1.29883 2.5
lowerneck -6.38454 -3.21098 -4.64572
upperneck 11.3839 -4.49094 5.52595
head 4.68587 -2.08437 2.19379
rclavicle 1.4724e-014 2.44505e-014
rhumerus -39.2869 6.78447 -82.8571
rradius 34.6663
rwrist 4.13861
rhand -11.833 -35.5187
rfingers 7.12502
rthumb 14.2179 -65.0121
lclavicle 1.4724e-014 2.44505e-014
lhumerus -30.1259 -8.9737 90.217
lradius 24.8748
lwrist -22.5379
lhand -23.5774 26.6536
lfingers 7.12502
lthumb 2.88548 56.6139
rfemur -18.0502 5.98005 15.7784
rtibia 40.2242
rfoot -17.5058 -12.8226
rtoes -11.7804
lfemur -15.3742 -5.41461 -13.9501
ltibia 33.9269
lfoot -17.7826 10.3916
ltoes -6.337
7
root -6.67511 16.9967 -24.0362 4.41047 0.0397072 -0.817038
lowerback 6.05189 1.89882 -3.51319
upperback -3.0881 2.27929 0.76972
thorax -6.8039 1.29929 2.50555
lowerneck -6.42132 -3.21285 -4.7002
upperneck 11.3772 -4.49434 5.59511
head 4.69293 -2.08378 2.22338
rclavicle -1.8327e-014 -1.98785e-016
rhumerus -39.266 6.80077 -82.8313
rradius 34.7148
rwrist 4.07892
rhand -11.8654 -35.4738
rfingers 7.12502
rthumb 14.1867 -64.9693
lclavicle -1.8327e-014 -1.98785e-016
lhumerus -30.0862 -8.96784 90.2214
lradius 24.8746
lwrist -22.5281
lhand -23.6384 26.6076
lfingers 7.12502
lthumb 2.82654 56.5686
rfemur -18.0674 5.95103 15.7642
rtibia 40.2666
rfoot -17.5171 -12.7818
rtoes -11.7313
lfemur -15.3683 -5.38759 -13.9636
ltibia 33.9328
lfoot -17.7885 10.3825
ltoes -6.34794
